<svg xmlns="http://www.w3.org/2000/svg" viewBox="0 0 10 10"><path d="M9.075 4.141H7.582L6.345 2.04C5.638.808 3.86.808 3.151 2.04L1.91 4.141H.27" color="#000" fill="none" stroke-linejoin="round" stroke-width=".491" style="text-indent:0;text-decoration-line:none;text-decoration-style:solid;text-decoration-color:#000;text-transform:none;white-space:normal;isolation:auto;mix-blend-mode:normal" stroke="#000"/><path stroke-width=".5" stroke="#000" fill="none" d="M8.285 5.241l1.09-1.085-1.09-1.085"/><path d="M1.725 8.241a.684.684 0 00.684.631h4.737c.527 0 .857-.57.593-1.026L5.371 3.74a.684.684 0 00-1.187 0L1.816 7.846a.69.69 0 00-.09.395z" color="#000" fill="#fc0" stroke="#000" stroke-linecap="round" stroke-linejoin="round" stroke-width=".5" style="text-indent:0;text-decoration-line:none;text-decoration-style:solid;text-decoration-color:#000;text-transform:none;white-space:normal;isolation:auto;mix-blend-mode:normal"/><path d="M4.48 7.563h.598v.546h-.599zM4.758 4.74c.196 0 .547.149.533.295l-.132 1.343-.075.732h-.608l-.078-.732-.15-1.343c-.015-.141.321-.295.51-.295z"/></svg>