<svg xmlns="http://www.w3.org/2000/svg" viewBox="0 0 10 10"><path stroke-linecap="round" fill="none" d="M5 1v1" stroke="#000" stroke-width=".5"/><path d="M7.5 4.5v2.08C7.76 7.324 8.92 8 8.5 8h-7c-.543 0 .683-.724 1-1.514V4.5C2.5 3 3.34 2 5 2c1.657 0 2.5 1 2.5 2.5zM5.5 8.7a.5.5 0 01-.25.433.5.5 0 01-.5 0A.5.5 0 014.5 8.7H5z" fill="#fc0" stroke="#000" stroke-width=".5" stroke-linecap="round"/><path stroke-width=".4" stroke="#000" d="M8.4 3.4a3.2 3.2 0 00-1.359-1.883M1.6 3.4a3.2 3.2 0 011.359-1.883" fill="none" stroke-linecap="round"/><path stroke-width=".367" stroke="#fff" d="M3.77 6.2c0-.062-.008-2.115 0-2.175.08-.567.207-1.043.776-1.202" fill="none" stroke-linecap="round"/></svg>