<svg version="1.1" viewBox="0 0 10 10" xmlns="http://www.w3.org/2000/svg"><g transform="translate(-1030 -.0168)" stroke-width="1px"><path d="m1035 4.12q0.485 0 0.735-0.213 0.25-0.213 0.25-0.629 0-0.41-0.25-0.623-0.25-0.218-0.735-0.218h-1.13v1.68zm0.069 3.48q0.618 0 0.927-0.261 0.314-0.261 0.314-0.789 0-0.517-0.309-0.773-0.309-0.261-0.932-0.261h-1.2v2.08zm1.91-2.86q0.661 0.192 1.02 0.709 0.362 0.517 0.362 1.27 0 1.15-0.778 1.72-0.778 0.565-2.37 0.565h-3.4v-7.95h3.08q1.66 0 2.4 0.501 0.746 0.501 0.746 1.6 0 0.581-0.272 0.991-0.272 0.405-0.788 0.602z"/></g></svg>
