<svg xmlns="http://www.w3.org/2000/svg" viewBox="0 0 10 10"><circle stroke-linejoin="round" r="3" cy="5.386" cx="5.437" transform="rotate(12.157)" stroke="#000" stroke-width=".5" stroke-linecap="round"/><path d="M1.276 3.617l.44.683 1.367-.882-.44-.683z" stroke="#000" stroke-width=".575" fill="none"/><path stroke="#000" d="M2.066 3.417a1.655 1.655 0 01-.36-.985 1.654 1.654 0 01.31-1.001c.208-.289.513-.506.853-.61a1.658 1.658 0 011.3.15l1.962 1.092" fill="none" stroke-width=".5"/><path stroke-linejoin="round" stroke="#fff" d="M3.636 8.417a2 2 0 01-1.521-1.458 2 2 0 01.628-2.011" fill="none" stroke-width=".5"/><path d="M6.916 3.017l.12 1.409M7.486 2.717l1.165.8M7.686 2.217l1.396-.224M5.216 3.717l1-1M7.296 1.717l.563-1.06M6.596 1.617L6.07.44" fill="none" stroke="#000" stroke-width=".5"/></svg>