<svg xmlns="http://www.w3.org/2000/svg" viewBox="0 0 10 10"><g stroke="#000" stroke-width=".5"><path fill="none" d="M3.51.5a1.64 1.64 0 00.266 1.413c.3.396.79.64 1.288.64a1.64 1.64 0 001.287-.64c.3-.396.401-.935.266-1.413"/><ellipse stroke-linejoin="round" stroke-linecap="square" fill="#ff9674" ry="1.042" rx="1.528" cy="2.2" cx="5"/><path d="M3.24 4.4c-1.015-.019-1.07.51-2.738.517M6.76 4.4c1.015-.019 1.07.51 2.739.517M3.55 6c-3.546-.063-2 .981-2.03 2.957M6.51 6c3.49-.08 2 .981 2.03 2.957M3.53 4c-1 .019-2-.981-2.03-2.957M6.51 3.9c1 .019 2-.981 2.03-2.957" fill="none"/><path stroke-linejoin="round" stroke-linecap="round" fill-rule="evenodd" fill="#ff9674" d="M2.91 7.8l-.595-3.523c.687-1.333 1.098-1.253 2.697-1.243 1.599-.01 1.99-.09 2.734 1.243l-.651 3.587C6.002 8.944 4.002 8.944 2.91 7.8z"/><path fill="none" d="M5 9V3"/></g></svg>