<svg version="1.1" viewBox="0 0 10 10" xmlns="http://www.w3.org/2000/svg"><g stroke="#000"><g transform="translate(-1010 .203)"><path d="m1014 1.75c-2.99-0.215-3.56 1.72-3.72 3.9 0.248 0.348 0.719 0.927 2.35 0.988 2.9 3.36 5.13-1.47 6.32 0.175 0-0.295-0.886-0.9-1.23-1.16-0.156-2.18-0.244-3.66-3.72-3.91z" fill="#c2d5ea" stroke-linecap="round" stroke-linejoin="round" stroke-width=".5"/><path d="m1013 6.56c1.32-0.173 4.05-1.37 5-0.947" fill="none" stroke-width=".5"/><circle cx="1015" cy="1.5" r="0" fill="#e5edf5" stroke-linecap="round" stroke-linejoin="round" stroke-width=".5"/></g><path d="m4.38 1.98c-1.51 0.501-1.02 4.6-1.02 4.68" fill="none" stroke-width=".5"/><path d="m4.98 2.06c1.93 0.14 1.9 2.36 2.1 3.66" fill="none" stroke-width=".5"/></g></svg>
