<svg version="1.1" viewBox="0 0 10 10" xmlns="http://www.w3.org/2000/svg">
<g transform="matrix(1.0173 0 0 1.0723 -163.2 -1085.2)" fill="#fff" stroke="#000" stroke-linecap="round" stroke-width=".47873">
<circle cx="165.03" cy="1016.7" r="2.5112"/>
<path d="m164.12 1018.9a1.6784 1.6784 0 0 1-2.0221-0.033 1.6784 1.6784 0 0 1-0.52231-1.9538 1.6784 1.6784 0 0 1 1.7358-1.0378"/>
<path d="m166.75 1016.6a1.4781 1.4781 0 0 1 1.6456-0.2273 1.4781 1.4781 0 0 1 0.81764 1.4461 1.4781 1.4781 0 0 1-1.0431 1.2929 1.4781 1.4781 0 0 1-1.5863-0.4933"/>
</g>
</svg>
