<svg xmlns="http://www.w3.org/2000/svg" viewBox="0 0 10 10"><path d="M4.557 1.254c-.152.363-.304.726-.426.945-.122.22-.254.234-.358.297l-1.119-.45-.617.618.457 1.11c-.065.104-.08.238-.158.333l-1.082.463v.873l1.107.461c.03.12.11.23.123.35l-.437 1.092.617.617 1.111-.46c.103.064.238.078.33.153l.465 1.09h.873l.467-1.119c.113-.03.215-.106.33-.117l1.106.441.617-.617-.465-1.123c.06-.099.072-.225.147-.313l1.101-.468v-.873l-1.125-.47c-.027-.111-.102-.214-.113-.327l.443-1.106-.617-.617c-.374.154-.747.31-1.121.463-.1-.062-.227-.078-.317-.152L5.43 1.254h-.873zM5 3.752A1.249 1.249 0 016.248 5 1.249 1.249 0 015 6.248 1.249 1.249 0 013.752 5 1.249 1.249 0 015 3.752z" stroke-width=".5" fill="#acbacc" stroke="#000"/></svg>