<?xml version="1.0" encoding="UTF-8" standalone="no"?>
<svg
   id="Layer_1"
   data-name="Layer 1"
   viewBox="0 0 320.65 208.68889"
   width="200"
   height="200"
   version="1.1"
   sodipodi:docname="cve.svg"
   inkscape:version="1.4.2 (ebf0e940, 2025-05-08)"
   xmlns:inkscape="http://www.inkscape.org/namespaces/inkscape"
   xmlns:sodipodi="http://sodipodi.sourceforge.net/DTD/sodipodi-0.dtd"
   xmlns="http://www.w3.org/2000/svg"
   xmlns:svg="http://www.w3.org/2000/svg">
  <sodipodi:namedview
     id="namedview3"
     pagecolor="#ffffff"
     bordercolor="#000000"
     borderopacity="0.25"
     inkscape:showpageshadow="2"
     inkscape:pageopacity="0.0"
     inkscape:pagecheckerboard="0"
     inkscape:deskcolor="#d1d1d1"
     showguides="true"
     inkscape:zoom="2.0479734"
     inkscape:cx="168.21507"
     inkscape:cy="92.530497"
     inkscape:window-width="1736"
     inkscape:window-height="982"
     inkscape:window-x="486"
     inkscape:window-y="1285"
     inkscape:window-maximized="0"
     inkscape:current-layer="Layer_1">
    <sodipodi:guide
       position="161.08949,105.48505"
       orientation="1,0"
       id="guide4"
       inkscape:locked="false" />
  </sodipodi:namedview>
  <defs
     id="defs3">
    <style
       id="style1">.cls-1{fill-rule:evenodd;fill:url(#linear-gradient);}.cls-2{font-size:18px;fill:#ff940e;font-family:ArialMT, Arial;}</style>
    <linearGradient
       id="linear-gradient"
       x1="152.2"
       y1="90.169998"
       x2="152.2"
       y2="5.6199999"
       gradientUnits="userSpaceOnUse"
       gradientTransform="matrix(0.96031267,0,0,0.96031267,10.954364,58.344917)">
      <stop
         offset="0"
         stop-color="#f68826"
         id="stop1"
         style="stop-color:#f48826;stop-opacity:1;" />
      <stop
         offset="1"
         stop-color="#fdb714"
         id="stop3" />
    </linearGradient>
  </defs>
  <circle
     style="fill:#162e51;fill-opacity:1;stroke:#000000;stroke-width:0.164186;stroke-linecap:round;stroke-linejoin:round"
     id="path4"
     cx="160.32501"
     cy="104.34444"
     r="160.2429" />
  <path
     class="cls-1"
     d="m 106.82238,143.55345 13.2043,-17.08396 H 65.557741 c -4.595996,0.0126 -9.966207,-0.79073 -15.153733,-3.48593 -1.206608,-0.5893 -6.775854,-3.57191 -9.814396,-9.75678 -1.656687,-3.38186 -2.07566,-6.71847 -2.074275,-9.24781 -0.0017,-2.52662 0.423104,-5.92318 2.1511,-9.353441 2.670472,-5.377316 6.871291,-8.389774 9.737571,-9.92003 5.481243,-2.934229 11.079288,-3.623661 15.163337,-3.610775 H 105.32429 V 72.45191 h 17.28563 v -8.642814 h 8.64281 v 8.642814 h -8.64281 v 8.642814 h 9.14218 c 9.13788,13.485701 18.2934,26.959446 27.42653,40.448366 13.61631,-19.27355 27.25797,-38.529244 40.89011,-57.791613 h 96.91475 l -13.34834,17.285628 h -70.68862 c -9.98247,14.059375 -19.90924,28.159285 -29.85612,42.244145 l -9.31503,13.17549 c -2.69226,3.71158 -7.64237,8.58305 -15.0385,8.48917 -6.35757,0.19266 -11.12032,-3.5827 -14.72159,-8.46036 C 130.92734,118.243 118.85983,99.257522 105.62199,81.123533 h 8.36432 V 63.741874 H 65.557741 c -5.582306,-0.01628 -12.557083,0.612604 -19.619187,2.861732 -7.382489,2.310769 -19.015889,7.822765 -25.323445,20.464262 -2.936321,5.813246 -3.62324,11.599246 -3.601173,15.806742 -0.0102,4.34557 0.719871,10.09515 3.620379,15.97 6.870727,14.16804 19.698767,19.431 25.361857,21.5014 7.611198,2.65392 14.747915,3.15921 19.561569,3.14022 h 41.293449 z m 33.1596,-79.811576 v 8.642814 h 8.64281 v -8.642814 z m 76.4793,32.055237 v 47.746739 h 67.5676 l 13.19469,-17.07436 h -59.15526 v -16.11404 h 42.81074 l 11.38931,-14.558339 z"
     id="path3"
     style="fill:#fdb714;stroke-width:0.960313;fill-opacity:1"
     sodipodi:nodetypes="ccccccccccccccccccccccccccccccccccccccccccccccccccccc" />
</svg>
