<?xml version="1.0" encoding="UTF-8" standalone="no"?>
<svg
   viewBox="0 0 10 10"
   version="1.1"
   id="svg2"
   sodipodi:docname="cve.svg"
   inkscape:version="1.4.2 (ebf0e940, 2025-05-08)"
   xmlns:inkscape="http://www.inkscape.org/namespaces/inkscape"
   xmlns:sodipodi="http://sodipodi.sourceforge.net/DTD/sodipodi-0.dtd"
   xmlns="http://www.w3.org/2000/svg"
   xmlns:svg="http://www.w3.org/2000/svg">
  <defs
     id="defs2">
    <linearGradient
       id="linear-gradient"
       x1="152.2"
       y1="90.169998"
       x2="152.2"
       y2="5.6199999"
       gradientUnits="userSpaceOnUse"
       gradientTransform="matrix(0.08462474,0,0,0.08462474,-8.316073,1.024418)">
      <stop
         offset="0"
         stop-color="#f68826"
         id="stop1" />
      <stop
         offset="0.45"
         stop-color="#faa227"
         id="stop2" />
      <stop
         offset="1"
         stop-color="#fdb714"
         id="stop3" />
    </linearGradient>
  </defs>
  <sodipodi:namedview
     id="namedview2"
     pagecolor="#ffffff"
     bordercolor="#000000"
     borderopacity="0.25"
     inkscape:showpageshadow="2"
     inkscape:pageopacity="0.0"
     inkscape:pagecheckerboard="0"
     inkscape:deskcolor="#d1d1d1"
     inkscape:zoom="38.097567"
     inkscape:cx="0.48559531"
     inkscape:cy="4.2128674"
     inkscape:window-width="1400"
     inkscape:window-height="706"
     inkscape:window-x="612"
     inkscape:window-y="1510"
     inkscape:window-maximized="0"
     inkscape:current-layer="svg2" />
  <path
     class="cls-1"
     d="M 0,3.029179 V 2.267556 H 1.523245 V 1.505934 H 2.284868 V 2.267556 H 1.523245 V 3.029179 H 2.328873 L 4.580737,6.349854 4.745756,6.593573 4.915005,6.353239 8.349077,1.500856 H 10 V 3.024102 H 9.483895 L 9.422115,3.108722 6.852908,6.74674 6.032048,7.907791 C 5.959478,8.007834 5.877591,8.100773 5.787482,8.185361 5.690172,8.276631 5.586989,8.361438 5.478602,8.439235 5.375829,8.511655 5.26131,8.565768 5.140103,8.599175 4.999119,8.638635 4.853215,8.657735 4.706824,8.655875 4.564079,8.657275 4.421787,8.639605 4.2837,8.603405 4.165263,8.572285 4.053054,8.521045 3.951971,8.451927 3.846289,8.380227 3.747679,8.298615 3.657477,8.208207 3.566207,8.116417 3.483229,8.01674 3.409527,7.910328 L 0.088006,3.116337 0.026226,3.031707 H 0.763307 V 1.5 H 0.002648 Z M 3.054107,1.50001 V 2.261633 H 3.81573 V 1.50001 Z"
     id="path3"
     sodipodi:nodetypes="cccccccccccccccccccccccccccccccccccccc"
     style="fill:url(#linear-gradient);fill-rule:evenodd;stroke-width:0.0846247" />
</svg>
