<svg xmlns="http://www.w3.org/2000/svg" viewBox="0 0 10 10"><g transform="translate(.985 -1.004)"><path d="M6.734 7.73l1.2-1.141-1.2-1.142" fill="none" stroke="#000" stroke-width=".5"/><ellipse ry=".779" rx=".783" cy="2.009" cx="3.503"/><path d="M2.577 10.34c0 .242.173.435.415.435a.438.438 0 00.442-.434l-.013-3.713h.276l-.002 3.713c0 .24.175.436.418.436.242 0 .415-.195.415-.436l.012-6.316h.265l-.014 2.327c-.002.361.573.375.572 0l.02-2.38c.005-.518-.354-1.021-.962-1.021L2.666 2.95c-.554 0-.902.45-.902 1.01v2.392c0 .41.56.327.559.004l-.01-2.335.265.004z"/><path d="M-.266 6.53h8.1" fill="none" stroke="#000" stroke-width=".5"/></g></svg>