<svg xmlns="http://www.w3.org/2000/svg" viewBox="0 0 10 10"><rect stroke-width=".5" stroke="#000" fill="#99fcae" ry="0" height="4.5" width="4.5" y="3.75" x="4.75"/><path d="M1 9.25h8M3 6.099v3M7 8.099v1" fill="none" stroke="#000" stroke-width=".5"/><g transform="translate(-138.322 -871.852) scale(.86138)" fill="#fff" stroke-linecap="round" stroke-width=".58" stroke="#000"><circle cx="165.03" cy="1016.7" r="2.511"/><path d="M164.12 1018.9a1.678 1.678 0 01-2.022-.033 1.678 1.678 0 01-.522-1.954 1.678 1.678 0 011.735-1.038M166.75 1016.6a1.478 1.478 0 011.646-.227 1.478 1.478 0 01.817 1.446 1.478 1.478 0 01-1.043 1.293 1.478 1.478 0 01-1.586-.494"/></g></svg>