<svg version="1.1" id="Camada_1" x="0" y="0" xml:space="preserve" width="120" height="120" xmlns="http://www.w3.org/2000/svg"><style type="text/css" id="style1">.st0{fill:none}.st1{fill:#fff}.st2{fill:#70b62c}</style><g id="g43" transform="translate(-101.433 -14.247)"><path d="M196.9 25c-7.3-.2-13.3 5.6-13.5 12.8-.1 3.7 1.4 7.3 4.1 9.9L173 81.8l1.8 7.5 6.7-3.9L196 51.3h.3c7.3.2 13.3-5.6 13.5-12.8.2-7.3-5.6-13.3-12.9-13.5Zm3.7 13.3c-.1 2.2-1.9 3.9-4.1 3.9-2.2-.1-3.9-1.9-3.9-4.1.1-2.2 1.9-3.9 4.1-3.9 2.2 0 4 1.9 3.9 4.1z" id="path38"/><path d="m164.4 91.9-17.8 29.7.5 1.3c.4.5.9.6 1.4.6H164c1.5 0 2.8-.8 3.3-1.9l9.7-23.9c-4.4-1.5-8.6-3.4-12.6-5.8z" id="path39" style="fill:#690"/><path d="m147.7 77.2-14.3 11.4 11.8 29.1 17.5-27c-5.8-3.6-10.8-8.2-15-13.5z" id="path40" style="fill:#cad31b"/><path d="M137.6 59.2c0-.1-.1-.2-.1-.3l-14.2 5 8.9 22.1 14.1-10.5c-3.7-4.9-6.6-10.4-8.7-16.3z" id="path41" style="fill:#ffd51d"/><path d="m134.3 45-17.9 2 5.7 14.3 14.6-4.5c-1.1-3.8-1.9-7.7-2.4-11.8Z" id="path42" style="fill:#f29100"/><path d="M134 38.2v-1.1l-18.9-.4c-1.5 0-2.4 1-1.9 2.2l2.2 5.5 18.8-1.4c-.2-1.7-.2-3.3-.2-4.8Z" id="path43" style="fill:#cc0019"/></g></svg>