<svg viewBox="0 0 10 10" xmlns="http://www.w3.org/2000/svg"><circle stroke-width=".563" stroke-linejoin="round" stroke-linecap="round" fill="#fff" r="1.969" cy="3" cx="5" stroke="#000"/><path stroke-width=".5" fill="#bfbfbf" d="M2.27 6.2c.596-.269 1.247-.83 1.785-.554.646.33 1.296.233 1.958.01.563-.192 1.182.294 1.792.585.363.256.692.465.699.925v1.816h-7v-1.67c.006-.565.348-.918.766-1.11Z" stroke="#000"/><path style="fill:#fff;stroke:#fff;stroke-width:1;stroke-linecap:square;stroke-linejoin:round;stroke-miterlimit:4;stroke-dasharray:none;stroke-opacity:1" d="m5.134 1.849 2 .011-2 2h2M7.382.825l2 .012-2 2h2"/><path style="fill:none;stroke:#000;stroke-width:.5;stroke-linecap:square;stroke-linejoin:round;stroke-miterlimit:4;stroke-dasharray:none;stroke-opacity:1" d="m5.134 1.849 2 .011-2 2h2M7.382.825l2 .012-2 2h2"/></svg>