<?xml version="1.0" encoding="UTF-8" standalone="no"?>
<svg
   viewBox="0 0 10 10"
   version="1.1"
   id="svg2"
   sodipodi:docname="cvss.svg"
   inkscape:version="1.4.2 (ebf0e940, 2025-05-08)"
   xmlns:inkscape="http://www.inkscape.org/namespaces/inkscape"
   xmlns:sodipodi="http://sodipodi.sourceforge.net/DTD/sodipodi-0.dtd"
   xmlns="http://www.w3.org/2000/svg"
   xmlns:svg="http://www.w3.org/2000/svg">
  <defs
     id="defs2" />
  <sodipodi:namedview
     id="namedview2"
     pagecolor="#ffffff"
     bordercolor="#000000"
     borderopacity="0.25"
     inkscape:showpageshadow="2"
     inkscape:pageopacity="0.0"
     inkscape:pagecheckerboard="0"
     inkscape:deskcolor="#d1d1d1"
     showgrid="true"
     inkscape:zoom="41.448416"
     inkscape:cx="7.5153655"
     inkscape:cy="5.0786017"
     inkscape:window-width="1504"
     inkscape:window-height="1128"
     inkscape:window-x="679"
     inkscape:window-y="1124"
     inkscape:window-maximized="0"
     inkscape:current-layer="svg2">
    <inkscape:grid
       id="grid2"
       units="px"
       originx="0"
       originy="0"
       spacingx="1"
       spacingy="1"
       empcolor="#0099e5"
       empopacity="0.30196078"
       color="#0099e5"
       opacity="0.14901961"
       empspacing="5"
       enabled="true"
       visible="true" />
  </sodipodi:namedview>
  <g
     id="wig"
     transform="matrix(0.1033657,0,0,0.10151767,-11.686643,-2.5327536)">
    <path
       id="needle"
       transform-origin="196.626px 38.181px"
       d="m 196.9,25 c -7.3,-0.2 -13.3,5.6 -13.5,12.8 -0.1,3.7 1.4,7.3 4.1,9.9 l -14.5,34.1 1.8,7.5 6.7,-3.9 14.5,-34.1 h 0.3 c 7.3,0.2 13.3,-5.6 13.5,-12.8 C 210,31.2 204.2,25.2 196.9,25 Z m 3.7,13.3 c -0.1,2.2 -1.9,3.9 -4.1,3.9 -2.2,-0.1 -3.9,-1.9 -3.9,-4.1 0.1,-2.2 1.9,-3.9 4.1,-3.9 2.2,0 4,1.9 3.9,4.1 z" />
  </g>
  <path
     class="st3"
     d="m 5.3066787,6.7967204 -1.839909,3.0150738 0.05168,0.1319727 c 0.04135,0.05076 0.09303,0.06091 0.144712,0.06091 h 1.602169 c 0.155048,0 0.289424,-0.08121 0.341106,-0.1928839 l 1.002648,-2.4262718 c -0.454809,-0.152277 -0.888945,-0.34516 -1.302408,-0.588802 z"
     id="none"
     style="fill:#669900;stroke-width:0.102438" />
  <path
     class="st4"
     d="m 3.5804717,5.3044104 -1.47813,1.157301 1.219716,2.9541638 1.808899,-2.7409768 c -0.599521,-0.365463 -1.116349,-0.832445 -1.550485,-1.370488 z"
     id="low"
     style="fill:#cad31b;stroke-width:0.102438" />
  <path
     class="st5"
     d="m 2.5364777,3.4770924 c 0,-0.01015 -0.01034,-0.0203 -0.01034,-0.03046 l -1.467793,0.507589 0.919955,2.24354 1.457456,-1.065935 c -0.382453,-0.497437 -0.682214,-1.055784 -0.899282,-1.654738 z"
     id="med"
     style="fill:#ffd51d;stroke-width:0.102438" />
  <path
     class="st6"
     d="m 2.1953707,2.0355414 -1.850246,0.203035 0.589185,1.451703 1.509139,-0.45683 c -0.113702,-0.385767 -0.196395,-0.781686 -0.248078,-1.197908 z"
     id="high"
     style="fill:#f29100;stroke-width:0.102438" />
  <path
     class="st7"
     d="m 2.1643617,1.3452214 v -0.11167 l -1.953612,-0.04061 c -0.155048,0 -0.248078,0.101518 -0.196395,0.223339 l 0.227405,0.558347 1.943275,-0.142124 c -0.02067,-0.17258 -0.02067,-0.335009 -0.02067,-0.487285 z"
     id="crit"
     style="fill:#cc0019;stroke-width:0.102438" />
</svg>
