<svg xmlns="http://www.w3.org/2000/svg" viewBox="0 0 10 10"><rect x="4.25" y="3.75" width="4.5" height="4.5" ry="0" fill="#99fcae" stroke-width=".5" stroke="#000"/><g transform="translate(-19.15 -320.23) scale(.49813)"><path stroke="#000" d="M49.871 649.31a4.7 4.7 0 01-1.381 3.334c-.427.427.479.466-.07 1.41-.547.944-2.549 1.476-3.2 1.476-.65 0-2.794-.623-3.375-1.567-.58-.944.404-.892-.023-1.319a4.7 4.7 0 01-1.381-3.334 4.7 4.7 0 011.38-3.334 4.704 4.704 0 012.512-1.31c.267-.047.588-.755.869-.755.285 0 .52.71.791.758.967.173 1.831.64 2.497 1.307a4.7 4.7 0 011.381 3.334z"/><path fill="#fff" d="M48.58 650.18c-1.412 2.653-2.625.752-3.49.688-.957.069-2.284 2.049-3.49-.689-.685-1.557.678-1.945 3.49-2.035 3.307-.105 4.292.527 3.49 2.035z"/><circle r=".453" cy="650.04" cx="43.478" transform="translate(3.964 62.556) scale(.90336)"/><circle r=".453" cy="650.04" cx="43.478" transform="translate(7.619 62.493) scale(.90336)"/></g></svg>