<svg viewBox="0 0 10 10" xmlns="http://www.w3.org/2000/svg"><path d="M6 6.142 7.5 5 6 3.858" fill-rule="evenodd"/><rect fill="#99fcae" ry="0" height="4.5" width="4.5" y="2.75" x="4.75" stroke="#000" stroke-width=".5"/><path fill="none" d="M6 6.142 7.2 5 6 3.858M4 5h3.1" stroke="#000" stroke-width=".5"/><g style="font-size:10.2209px;line-height:1.25;font-family:Geneva;-inkscape-font-specification:Geneva;white-space:pre;inline-size:5.15766;fill:#c00;stroke-width:.638805"><path d="m1.327 1.8.371.623.268.831.311-.846.356-.593.713.386-.386.638-.683.712 1.01-.178h.712v.831h-.683l-.95-.178.683.712.341.579-.697.415-.386-.623-.341-.905-.282.86-.371.624-.742-.416.4-.623.624-.623-.861.178h-.742v-.831h.742l.92.178-.668-.653L.6 2.216Z" style="font-family:'PT Sans';-inkscape-font-specification:'PT Sans';stroke-width:.927454" transform="rotate(30 -.101 4.904)" aria-label="*"/></g></svg>