<svg viewBox="0 0 10 10" xmlns="http://www.w3.org/2000/svg"><circle stroke-width=".563" stroke-linejoin="round" stroke-linecap="round" fill="#fff" r="1.969" cy="3" cx="5" stroke="#000"/><path stroke-width=".5" fill="#bfbfbf" d="M2.27 6.2c.596-.269 1.247-.83 1.785-.554.646.33 1.296.233 1.958.01.563-.192 1.182.294 1.792.585.363.256.692.465.699.925v1.816h-7v-1.67c.006-.565.348-.918.766-1.11Z" stroke="#000"/><path style="fill:#fc0;stroke:#0c0c0c;stroke-width:.5;stroke-linecap:round;stroke-linejoin:round;stroke-miterlimit:4;stroke-dasharray:none;stroke-opacity:1;paint-order:fill markers stroke" d="m9.504 4.157-4.26-.015L7.388.461Z"/><path d="M7.158 3.305h.5v.456h-.5Zm.236-1.733c.13 0 .36.13.35.258l-.086.587-.05.641H7.21l-.052-.64-.098-.588c-.01-.124.211-.258.335-.258Z" style="stroke-width:.638528"/></svg>