<svg xmlns="http://www.w3.org/2000/svg" viewBox="0 0 10 10"><path stroke-width=".5" stroke-linejoin="round" d="M2.997 4v-.977c0-.554.446-1 1-1h4.56v6h-4.56c-.554 0-1-.446-1-1v-.979" fill="none" stroke="#000"/><path stroke-width=".5" d="M6.137 5H.64" fill="none" stroke="#000"/><path stroke-width=".459" d="M4.307 6.9l1.837-1.838-1.837-1.837" fill="none" stroke="#000"/><path d="M8.717 2.9c0-.573-.145-.923-.325-.784l-1.13.87c-.18.14-.325.713-.325 1.287v4.14c0 .573.145.923.325.784l1.13-.871c.19-.14.33-.713.33-1.286V4.97z" fill="#f4a460" stroke-linejoin="round" stroke-width=".5" stroke="#000"/></svg>