<svg xmlns="http://www.w3.org/2000/svg" viewBox="0 0 10 10"><path d="M2.412 2H.937v7.005h8.125v-5.76l-3 1.482V3.245l-2.95 1.51V2h-.7" fill="#fce94f" stroke="#000" stroke-width=".5"/><path d="M3.442 6.7h-1.13v1.03h1.13zM5.442 6.7h-1.13v1.03h1.13zM7.442 6.7h-1.13v1.03h1.13z"/><path d="M1.722 1.4C1.726.76 3.185.07 4.22.709 4.594.079 5.88.31 5.863.787c.822-.529 1.863-.048 1.386.74-.203.336-1.229.732-2.398.17-.808.545-1.732-1.33-2.44-.245-.179-.114-.558-.08-.558-.08z" fill-opacity=".444" fill-rule="evenodd"/></svg>