<svg viewBox="0 0 10 10" xmlns="http://www.w3.org/2000/svg"><path style="fill:#f1f1f1;fill-opacity:1;stroke:#000;stroke-width:1;stroke-linecap:square;stroke-linejoin:round;stroke-miterlimit:4;stroke-dasharray:none;stroke-opacity:1;paint-order:fill markers stroke" d="m1.722 8.185.055-2.414L4.28 3.742l.293 1.152.183-1.444 1.298-1.371L8.486 1 8.03 4.108l-1.463.585L7.92 4.62 5.16 7.71l-1.371-.056 1.078.366-1.115.86Z"/><path style="fill:#f1f1f1;fill-opacity:1;stroke:none;stroke-width:.5;stroke-linecap:square;stroke-linejoin:round;stroke-miterlimit:4;stroke-dasharray:none;stroke-opacity:1;paint-order:fill markers stroke" d="m1.722 8.185.055-2.414L4.28 3.742l.293 1.152.183-1.444 1.298-1.371L8.486 1 8.03 4.108l-1.463.585L7.92 4.62 5.16 7.71l-1.371-.056 1.078.366-1.115.86Z"/><path style="fill:none;stroke:#000;stroke-width:.25;stroke-linecap:round;stroke-linejoin:miter;stroke-miterlimit:4;stroke-dasharray:none;stroke-opacity:1" d="M.625 8.788C4.835 6.72 6.85 3.505 8.505.926"/></svg>