<svg version="1.1" viewBox="0 0 10 10" xmlns="http://www.w3.org/2000/svg"><path d="m5 1.57c-1 0-0.845 0.434-1.23 0.586-1.37 0.542-2.37 1.96-2.49 3.67-0.349 0.259-0.531 0.551-0.531 0.848 0 0.966 1.9 1.75 4.25 1.75s4.25-0.784 4.25-1.75c0-0.295-0.185-0.584-0.531-0.842-0.128-1.8-1.23-3.28-2.71-3.75-0.3-0.102 0-0.508-1-0.508z" fill="#fce94f" stroke="#000" stroke-linecap="round" stroke-linejoin="round" stroke-width=".5"/><g fill="none" stroke="#000" stroke-opacity=".207"><path d="m4 6.92c-0.012-1.49 0.494-1.22 0.999-1.22 0.5 0.0022 1-0.276 1 1.22" stroke-linecap="round" stroke-width=".5"/><path d="m4.2 1.82v2.35" stroke-width=".5"/><path d="m5.8 1.79v2.39" stroke-width=".5"/></g></svg>
