<svg version="1.1" viewBox="0 0 10 10" xmlns="http://www.w3.org/2000/svg"><ellipse cx="5" cy="6.47" rx="4.25" ry="1.75" stroke="#000" stroke-linecap="round" stroke-linejoin="round" stroke-width=".5"/><path d="m2.25 6.72c0-1.91 0.498-4.86 1.76-4.94 0.288-0.0176 0.493 0.444 0.985 0.436 0.51-0.0082 0.722-0.464 1.02-0.434 1.24 0.125 1.73 3.04 1.73 4.93-1.75 1.75-3.75 1.75-5.5 0z" stroke="#000" stroke-linecap="round" stroke-linejoin="round" stroke-width=".5"/><path d="m7.8 5.02c-0.891 0.743-1.87 1.19-2.73 1.22-0.856 0.0259-1.91-0.301-2.91-1.15l-0.127 1c1.13 0.968 1.92 1.19 3.06 1.15 1.14-0.0345 1.81-0.312 2.82-1.15z" color="#000000" color-rendering="auto" fill="#fff" fill-rule="evenodd" image-rendering="auto" shape-rendering="auto" solid-color="#000000" style="isolation:auto;mix-blend-mode:normal;text-decoration-color:#000000;text-decoration-line:none;text-decoration-style:solid;text-indent:0;text-transform:none;white-space:normal"/></svg>
