<svg xmlns="http://www.w3.org/2000/svg" viewBox="0 0 10 10"><path d="M4.083 8.209a2.723 2.723 0 01-1.09-.272c-.144-.076-.189-.117-.189-.174 0-.019.06-.171.132-.338l.132-.302-.124-.285-.124-.285-.254-.31-.267-.329c-.008-.01-.08-.547-.161-1.192L1.99 3.548l-.092-.031a.41.41 0 01-.236-.175.457.457 0 01-.027-.468.436.436 0 01.418-.247c.192 0 .338.086.417.247.092.187.065.357-.09.557-.007.01.13.306.39.841l.401.825.058-1.013c.032-.558.06-1.035.06-1.06 0-.037-.007-.048-.052-.071a.486.486 0 01-.214-.22c-.117-.238-.015-.507.239-.627a.458.458 0 01.6.23c.04.081.046.108.046.199 0 .09-.006.117-.046.197a.496.496 0 01-.102.141l-.056.048.345 1.002c.19.55.349 1.002.353 1.002.004 0 .095-.505.202-1.122L4.8 2.681l-.06-.04a.465.465 0 11.68-.583c.04.08.045.108.045.198 0 .16-.073.297-.206.385l-.06.04.196 1.122c.107.617.198 1.122.202 1.122.004 0 .163-.451.353-1.002l.345-1.002-.056-.048a.494.494 0 01-.102-.14c-.117-.238-.015-.507.239-.628a.442.442 0 01.361 0 .476.476 0 01.24.232c.039.08.045.107.045.197 0 .09-.006.118-.046.198a.486.486 0 01-.214.22c-.045.024-.052.034-.052.073 0 .024.027.5.06 1.058l.058 1.014.401-.825c.26-.535.397-.83.39-.841-.155-.2-.182-.37-.09-.557a.436.436 0 01.417-.248c.193 0 .338.087.418.248a.457.457 0 01-.027.468.41.41 0 01-.236.174l-.092.031-.147 1.174c-.08.646-.153 1.183-.16 1.193l-.269.329-.253.31-.124.285-.124.284.132.303c.072.167.132.319.132.338 0 .057-.045.098-.19.174-.23.12-.509.204-.824.25-.118.017-.328.021-1.085.023-.516.002-.972.001-1.014-.001z"/><path fill="#fff" d="M3.599 6.845a4.506 4.506 0 012.802 0c.117.038.24.08.273.095.044.019.063.021.068.01l.09-.206.082-.19-.05-.016c-.93-.297-1.748-.374-2.663-.25a5.95 5.95 0 00-1.065.25l-.05.017.082.189.09.206c.005.011.024.009.068-.01.033-.014.156-.057.273-.095z"/></svg>