<svg version="1.1" viewBox="0 0 10 10" xmlns="http://www.w3.org/2000/svg"><path d="m6.64 1c-0.606 1.3e-6 -1.21 0.23-1.67 0.689l-1.32 1.32c-0.92 0.92-0.92 2.42 0 3.34 0.216 0.216 0.466 0.376 0.73 0.49l0.807-0.807c-0.301-0.0305-0.595-0.156-0.83-0.391-0.54-0.54-0.54-1.39 0-1.93l1.32-1.32c0.27-0.27 0.616-0.404 0.963-0.404 0.347 1.1e-6 0.695 0.134 0.965 0.404 0.54 0.54 0.54 1.39 0 1.93l-0.182 0.182c0.106 0.357 0.152 0.729 0.115 1.1-0.01 0.0839-0.031 0.167-0.047 0.25l0.82-0.82c0.92-0.92 0.92-2.42 0-3.34-0.46-0.46-1.07-0.689-1.67-0.689z" color="#000000" color-rendering="auto" fill="#729fcf" image-rendering="auto" shape-rendering="auto" solid-color="#000000" style="isolation:auto;mix-blend-mode:normal;text-decoration-color:#000000;text-decoration-line:none;text-decoration-style:solid;text-indent:0;text-transform:none;white-space:normal"/><path d="m3.36 9c0.606 0 1.21-0.23 1.67-0.69l1.32-1.32c0.92-0.92 0.92-2.42 0-3.34-0.216-0.216-0.466-0.376-0.73-0.49l-0.807 0.807c0.301 0.031 0.595 0.156 0.83 0.391 0.54 0.54 0.54 1.39 0 1.93l-1.32 1.32c-0.27 0.27-0.616 0.404-0.963 0.404-0.347 0-0.695-0.134-0.965-0.404-0.54-0.54-0.54-1.39 0-1.93l0.182-0.182c-0.106-0.357-0.152-0.729-0.115-1.1 0.01-0.084 0.031-0.167 0.047-0.25l-0.82 0.82c-0.92 0.92-0.92 2.42 0 3.34 0.46 0.46 1.07 0.69 1.67 0.69z" color="#000000" color-rendering="auto" image-rendering="auto" shape-rendering="auto" solid-color="#000000" style="isolation:auto;mix-blend-mode:normal;text-decoration-color:#000000;text-decoration-line:none;text-decoration-style:solid;text-indent:0;text-transform:none;white-space:normal"/></svg>
