<svg xmlns="http://www.w3.org/2000/svg" viewBox="0 0 10 10"><rect fill="#fff" ry="0" height="1" width="9" y="-.716" x="-12.162" transform="rotate(-135)" stroke="#000" stroke-width=".5"/><path stroke="#000" stroke-width=".5" d="M8.094 9.106l-4.95-4.95.707-.707L8.8 8.4z"/><path stroke-width=".25" fill="#fc0" d="M5.06 1.714l-.398.197-.064.44-.31-.319-.438.075.206-.393-.206-.393.437.075.31-.319.065.44z" stroke="#000"/><path stroke-width=".335" d="M2.5 6.014l-.398.197-.064.44-.31-.319-.438.075.206-.393-.206-.393.437.075.31-.319.065.44z" stroke="#000"/><path stroke-width=".25" fill="#fc0" d="M7.653 3.725l-.661-.332-.648.356.112-.731-.54-.507.73-.12.316-.668.34.657.733.093-.52.526z" stroke="#000"/></svg>