<svg viewBox="0 0 10 10" xmlns="http://www.w3.org/2000/svg"><circle style="fill:#fff;fill-opacity:1;stroke:#000;stroke-width:.5;stroke-miterlimit:4;stroke-dasharray:none;stroke-opacity:1" cx="5" cy="3.25" r="3"/><circle style="fill:#ff9393;fill-opacity:1;stroke:#000;stroke-width:.5;stroke-miterlimit:4;stroke-dasharray:none;stroke-opacity:1" cx="5" cy="3.25" r="2"/><path fill="#fff" d="M2.433 6.853c0-1 .488-.775.488-.775l1.466.383.037-3.408c.011-1.06 1.305-.807 1.304 0l-.002 1.751c.837.074 1.313.236 2.3.6.411.152.483.572.438.964l-.388 3.417h-3.5c.02-.86-.593-2.17-2.143-2.932z" stroke="#000" stroke-width=".5"/><path style="fill:none;stroke:#000;stroke-width:.25;stroke-linecap:round;stroke-linejoin:miter;stroke-miterlimit:4;stroke-dasharray:none;stroke-opacity:1" d="M5.605 4.233v1.045m1.037-.758-.017.86m1.017-.73-.017.86" transform="translate(0 .587)"/></svg>