<?xml version="1.0" encoding="UTF-8" standalone="no"?>
<svg
   xmlns:dc="http://purl.org/dc/elements/1.1/"
   xmlns:cc="http://creativecommons.org/ns#"
   xmlns:rdf="http://www.w3.org/1999/02/22-rdf-syntax-ns#"
   xmlns:svg="http://www.w3.org/2000/svg"
   xmlns="http://www.w3.org/2000/svg"
   id="svg5391"
   version="1.1"
   viewBox="0 0 10 10">
  <metadata
     id="metadata5397">
    <rdf:RDF>
      <cc:Work
         rdf:about="">
        <dc:format>image/svg+xml</dc:format>
        <dc:type
           rdf:resource="http://purl.org/dc/dcmitype/StillImage" />
        <dc:title></dc:title>
      </cc:Work>
    </rdf:RDF>
  </metadata>
  <defs
     id="defs5395" />
  <path
     id="path8436"
     d="m 5.5888756,2.6026712 c -0.2626,-0.457736 -0.9234,-0.457736 -1.1862,0 m -2.4444,4.506567 c -0.1299,0.2784322 0.3123,0.624706 0.6702,0.623561 h 4.7349 c 0.3983,4.618e-4 0.8698,-0.3251795 0.6858,-0.6813209"
     style="color:#000000;text-indent:0;text-decoration:none;text-decoration-line:none;text-decoration-style:solid;text-decoration-color:#000000;text-transform:none;white-space:normal;isolation:auto;mix-blend-mode:normal;solid-color:#000000;fill:none;fill-opacity:1;stroke:#000000;stroke-width:0.5;stroke-linecap:butt;stroke-linejoin:round;stroke-miterlimit:4;stroke-dasharray:none;color-rendering:auto;image-rendering:auto;shape-rendering:auto" />
  <path
     style="color:#000000;text-indent:0;text-decoration:none;text-decoration-line:none;text-decoration-style:solid;text-decoration-color:#000000;text-transform:none;white-space:normal;isolation:auto;mix-blend-mode:normal;solid-color:#000000;fill:#ffcc00;stroke:#000000;stroke-width:0.5;stroke-linecap:round;stroke-linejoin:round;stroke-miterlimit:4;stroke-dasharray:none;color-rendering:auto;image-rendering:auto;shape-rendering:auto"
     d="m 1.9124756,6.1024862 c 0.027,0.356679 0.3262,0.631458 0.6841,0.630313 h 4.7349 c 0.5269,6.11e-4 0.8567,-0.569556 0.593,-1.025995 l -2.3675,-4.1041331 c -0.2626,-0.457736 -0.9234,-0.457736 -1.1862,0 l -2.3674,4.1041331 c -0.068,0.120369 -0.1012,0.257224 -0.09,0.395682 z"
     id="path8442" />
  <g
     transform="matrix(0.77472477,0,0,0.56434312,-273.19483,-761.05323)"
     id="g8444">
    <path
       d="m 358.65,1358.2 h 0.77212 v 0.9661 H 358.65 Z m 0.36559,-4.9183 c 0.1985,0 0.55415,0.2748 0.53963,0.5466 l -0.1331,2.4914 -0.0761,1.3578 h -0.61617 l -0.0799,-1.3578 -0.15091,-2.4914 c -0.0159,-0.2621 0.32499,-0.5466 0.51655,-0.5466 z"
       id="path8446" />
  </g>
  <path
     style="color:#000000;text-indent:0;text-decoration:none;text-decoration-line:none;text-decoration-style:solid;text-decoration-color:#000000;text-transform:none;white-space:normal;isolation:auto;mix-blend-mode:normal;solid-color:#000000;fill:none;fill-opacity:1;stroke:#000000;stroke-width:0.5;stroke-linecap:butt;stroke-linejoin:round;stroke-miterlimit:4;stroke-dasharray:none;color-rendering:auto;image-rendering:auto;shape-rendering:auto"
     d="m 1.9582756,8.1092382 c -0.1299,0.2784322 0.3123,0.624706 0.6702,0.623561 h 4.7349 c 0.3983,4.618e-4 0.8698,-0.3251795 0.6858,-0.6813209"
     id="path4886" />
</svg>
