<?xml version="1.0" encoding="UTF-8" standalone="no"?>
<svg
   xmlns:dc="http://purl.org/dc/elements/1.1/"
   xmlns:cc="http://creativecommons.org/ns#"
   xmlns:rdf="http://www.w3.org/1999/02/22-rdf-syntax-ns#"
   xmlns:svg="http://www.w3.org/2000/svg"
   xmlns="http://www.w3.org/2000/svg"
   id="svg847"
   viewBox="0 0 10 10"
   version="1.1">
  <metadata
     id="metadata853">
    <rdf:RDF>
      <cc:Work
         rdf:about="">
        <dc:format>image/svg+xml</dc:format>
        <dc:type
           rdf:resource="http://purl.org/dc/dcmitype/StillImage" />
        <dc:title></dc:title>
      </cc:Work>
    </rdf:RDF>
  </metadata>
  <defs
     id="defs851" />
  <path
     style="opacity:1;fill:none;stroke:#000000;stop-opacity:1"
     d="m 4.01268,2.9874095 h 5"
     id="path1982" />
  <path
     style="opacity:1;fill:none;stroke:#000000;stop-opacity:1"
     d="m 4.01268,6.9874095 h 5"
     id="path1984" />
  <g
     style="opacity:1;stop-opacity:1"
     transform="matrix(1.078,0,0,0.92762,-1109.9873,-0.01259054)"
     stroke-width="1px"
     id="g1990">
    <path
       d="m 1030.6,4.3104 h 0.6472 V 2.1978 l -0.6021,0.16569 V 1.78357 l 0.6061,-0.16133 h 0.559 v 2.6881 h 0.6473 V 4.87718 H 1030.6 V 4.31034 Z"
       id="path1988" />
  </g>
  <g
     style="opacity:1;stop-opacity:1"
     transform="matrix(1.0381,0,0,0.96329,-1109.9873,-0.01259054)"
     stroke-width="1px"
     id="g1994">
    <path
       d="m 1070.2,8.1778 1.1539,-1.0364 c 0.059,-0.053151 0.1174,-0.1133 0.1762,-0.18043 0.059,-0.067138 0.088,-0.14547 0.088,-0.23498 0,-0.10071 -0.036,-0.17904 -0.1091,-0.23498 -0.073,-0.058746 -0.1581,-0.088119 -0.256,-0.088119 -0.1175,0 -0.2098,0.036367 -0.2769,0.1091 -0.065,0.072733 -0.1092,0.10943 -0.1173,0.21573 l -0.6213,0.00667 c 0.01,-0.15386 0.041,-0.28674 0.097,-0.39863 0.056,-0.11469 0.1301,-0.20981 0.2224,-0.28534 0.092,-0.075531 0.2,-0.13148 0.3231,-0.16785 0.1259,-0.039164 0.2616,-0.058746 0.4071,-0.058746 0.1343,0 0.2601,0.019582 0.3776,0.058746 0.1175,0.036367 0.2196,0.092315 0.3063,0.16785 0.087,0.072733 0.1539,0.16505 0.2015,0.27695 0.05,0.1119 0.075,0.24198 0.075,0.39024 0,0.095113 -0.01,0.18183 -0.029,0.26016 -0.019,0.075531 -0.047,0.14547 -0.084,0.20981 -0.033,0.061543 -0.074,0.11889 -0.1217,0.17204 -0.047,0.053151 -0.099,0.1049 -0.1553,0.15526 l -0.9021,0.77629 h 1.3176 v 0.55389 h -2.0729 v -0.66719 z"
       id="path1992" />
  </g>
</svg>
