<svg xmlns="http://www.w3.org/2000/svg" viewBox="0 0 10 10"><path d="M2.655 8.179c-.094-.038-.133-.22-.133-.622 0-.332.023-.477.128-.793.2-.598.636-1.117 1.176-1.398l.154-.08-.077-.063a1.265 1.265 0 01-.38-.6.931.931 0 01-.034-.314c0-.167.007-.21.043-.323.116-.354.319-.592.639-.75l.146-.071-.065-.097a.786.786 0 01-.112-.644.745.745 0 01.419-.51.964.964 0 01.882 0c.224.11.354.268.42.51a.786.786 0 01-.113.644l-.065.097.146.071c.32.158.523.396.639.75a.817.817 0 01.043.323.942.942 0 01-.034.314 1.266 1.266 0 01-.38.6l-.077.063.154.08c.54.28.977.8 1.176 1.398.105.316.129.46.128.793 0 .41-.04.585-.138.623-.05.019-4.638.018-4.685-.001v0z" fill="#0c0c0c" stroke="#000" stroke-width=".015"/></svg>