<svg xmlns="http://www.w3.org/2000/svg" viewBox="0 0 10 10"><path d="M4.713 3.618l-2.958.658-.33.328 1.692.594M6.357 5.262L5.7 8.22l-.33.328-.609-1.739" fill="#fff" stroke="#000" stroke-width=".46494"/><path d="M4.713 6.906c-.493 1.48-2.125 1.782-3.44 1.782 0-1.315.317-2.933 1.797-3.426" fill="#ff8f1c"/><path d="M4.385 6.577c-.322 1.181-1.496 1.482-2.647 1.646.164-1.15.465-2.324 1.66-2.632" fill="#fff742"/><path d="M8.415 3.236l-3.702 3.67L3.07 5.262l3.7-3.67c.414-.41 1.973-.328 1.973-.328s.157 1.492-.328 1.972z" fill="#fff" stroke="#000" stroke-width=".46494"/><path d="M3.146 6.915l2.319-2.373" fill="none" stroke="#000" stroke-width=".465"/></svg>