<?xml version="1.0" encoding="UTF-8" standalone="no"?>
<svg
   xmlns:dc="http://purl.org/dc/elements/1.1/"
   xmlns:cc="http://creativecommons.org/ns#"
   xmlns:rdf="http://www.w3.org/1999/02/22-rdf-syntax-ns#"
   xmlns:svg="http://www.w3.org/2000/svg"
   xmlns="http://www.w3.org/2000/svg"
   id="svg847"
   viewBox="0 0 10 10"
   version="1.1">
  <metadata
     id="metadata853">
    <rdf:RDF>
      <cc:Work
         rdf:about="">
        <dc:format>image/svg+xml</dc:format>
        <dc:type
           rdf:resource="http://purl.org/dc/dcmitype/StillImage" />
        <dc:title></dc:title>
      </cc:Work>
    </rdf:RDF>
  </metadata>
  <defs
     id="defs851" />
  <rect
     style="font-size:8.1664px;line-height:125%;font-family:sans-serif;letter-spacing:0px;word-spacing:0px;opacity:1;stroke-width:1px;stop-opacity:1"
     id="rect2057"
     fill="#fc0"
     ry="1.1571"
     height="9.2571001"
     width="9.2571001"
     y="-9.6285715"
     x="0.37099999"
     transform="scale(1,-1)" />
  <g
     style="font-size:8.1664px;line-height:125%;font-family:sans-serif;letter-spacing:0px;word-spacing:0px;opacity:1;stroke-width:1px;stop-opacity:1"
     id="g2063"
     fill="#fff"
     transform="matrix(0.085205,0,0,0.081992,3.3710283,0.90454198)">
    <circle
       id="circle2059"
       r="9.0284004"
       cy="10.418"
       cx="18.118" />
    <path
       id="path2061"
       d="m 8.472,95.426 c 0,2.524 1.8044,4.5466 4.3284,4.5466 2.529,0 4.6033,-2.0226 4.6033,-4.5466 L 17.26128,56.541 h 2.8769 l -0.02419,38.885 c 0,2.524 1.8297,4.574 4.3557,4.574 2.526,0 4.3274,-2.05 4.3274,-4.574 l 0.12803,-62.544 h 2.7622 l -0.14404,20.766 c -0.02624,3.7827 5.9659,3.9277 5.9519,0 l 0.21606,-21.322 c 0.047,-5.418 -3.688,-10.692 -10.027,-10.692 l -18.288,-0.008 c -5.777,0 -9.396,4.71 -9.396,10.587 v 21.436 c 0,4.2899 5.8358,3.4206 5.8208,0.0362 l -0.108,-20.838 2.7682,0.036 z" />
  </g>
</svg>
