<svg xmlns="http://www.w3.org/2000/svg" viewBox="0 0 10 10"><g stroke="#000"><path d="M368.25 1.25v7.5h-6.5v-7.5z" fill="#fff" stroke-linecap="round" stroke-width=".5"/><path d="M363.99 1h.328s.064-.53.672-.5c.59-.028.66.5.66.5h.345c.602 0 .5.809.5 1.25h-3c0-.518-.014-1.25.5-1.25z" fill="#fce94f" fill-rule="evenodd" stroke-width=".5"/><path d="M363.48 5.48l1 1 2.028-2" fill="none"/><path d="M363.99 1h.328s.064-.53.672-.5c.59-.028.66.5.66.5h.345c.602 0 .5.809.5 1.25h-3c0-.518-.014-1.25.5-1.25z" fill="#fce94f" fill-rule="evenodd" stroke-width=".5"/></g><g stroke="#000"><path d="M8.25 1.625v7.5h-6.5v-7.5z" fill="#fff" stroke-linecap="round" stroke-width=".5"/><path d="M3.99 1.376h.328s.064-.531.672-.5c.59-.029.66.5.66.5h.345c.602 0 .5.808.5 1.25h-3c0-.519-.014-1.25.5-1.25z" fill="#fce94f" fill-rule="evenodd" stroke-width=".5"/><path d="M3.48 5.855l1 1 2.028-2" fill="none"/><path d="M3.99 1.376h.328s.064-.531.672-.5c.59-.029.66.5.66.5h.345c.602 0 .5.808.5 1.25h-3c0-.519-.014-1.25.5-1.25z" fill="#fce94f" fill-rule="evenodd" stroke-width=".5"/></g></svg>