<svg xmlns="http://www.w3.org/2000/svg" viewBox="0 0 10 10"><path stroke="#000" d="M7.665 4.683c0 .731-.297 1.393-.776 1.872-.24.24.27.261-.039.791-.307.53-1.43.829-1.796.829-.366 0-1.569-.35-1.895-.88-.325-.53.227-.5-.013-.74a2.638 2.638 0 01-.775-1.872c0-.73.296-1.392.775-1.871a2.64 2.64 0 011.41-.736c.15-.026.33-.424.487-.424.16 0 .292.399.445.426a2.64 2.64 0 011.401.734c.48.479.776 1.14.776 1.871z" stroke-width=".561"/><path fill="#fff" d="M6.94 5.171c-.793 1.49-1.474.423-1.96.387-.536.038-1.282 1.15-1.958-.387-.385-.874.38-1.092 1.959-1.142 1.856-.06 2.409.295 1.959 1.142z"/><circle r=".23" cy="4.945" cx="3.943"/><circle r=".23" cy="4.909" cx="5.994"/></svg>