<svg version="1.1" viewBox="0 0 10 10" xmlns="http://www.w3.org/2000/svg"><path d="m8.2 5.06c0.92-0.92 0.92-2.42 0-3.34-0.773-0.773-1.95-0.888-2.86-0.362l0.258 1.04c0.542-0.508 1.36-0.5 1.89 0.029 0.54 0.54 0.54 1.39 0 1.93l-1.12 1.12 0.282 1.13z" color="#000000" color-rendering="auto" fill="#729fcf" image-rendering="auto" shape-rendering="auto" solid-color="#000000" style="isolation:auto;mix-blend-mode:normal;text-decoration-color:#000000;text-decoration-line:none;text-decoration-style:solid;text-indent:0;text-transform:none;white-space:normal"/><g><path d="m4.43 8.6-0.258-1.04c-0.541 0.5-1.36 0.492-1.89-0.035-0.306-0.306-0.433-0.708-0.394-1.1 0.031-0.302 0.16-0.593 0.394-0.827l1.12-1.12-0.282-1.13-1.54 1.54c-0.4 0.4-0.629 0.911-0.682 1.43-0.069 0.68 0.162 1.39 0.682 1.91 0.771 0.771 1.95 0.886 2.85 0.365z" color="#000000" color-rendering="auto" image-rendering="auto" shape-rendering="auto" solid-color="#000000" style="isolation:auto;mix-blend-mode:normal;text-decoration-color:#000000;text-decoration-line:none;text-decoration-style:solid;text-indent:0;text-transform:none;white-space:normal"/><path d="m0.994 1.76 1.06-0.933 0.869 2.06-1.93-1.13" fill-rule="evenodd"/><path d="m9.11 8.15-1 1-1-2 2 1" fill-rule="evenodd"/></g><path d="m3.83 0.553 2.3 8.89" fill="#ef2929" fill-rule="evenodd" stroke="#e24d03" stroke-width=".5"/></svg>
