<?xml version="1.0" encoding="UTF-8" standalone="no"?>
<!-- Created with Inkscape (http://www.inkscape.org/) -->

<svg
   width="64mm"
   height="64mm"
   viewBox="0 0 64 64"
   version="1.1"
   id="svg1"
   inkscape:version="1.4.2 (ebf0e940, 2025-05-08)"
   sodipodi:docname="wave.svg"
   xml:space="preserve"
   inkscape:export-filename="wave.png"
   inkscape:export-xdpi="25.4"
   inkscape:export-ydpi="25.4"
   xmlns:inkscape="http://www.inkscape.org/namespaces/inkscape"
   xmlns:sodipodi="http://sodipodi.sourceforge.net/DTD/sodipodi-0.dtd"
   xmlns="http://www.w3.org/2000/svg"
   xmlns:svg="http://www.w3.org/2000/svg"><sodipodi:namedview
     id="namedview1"
     pagecolor="#ffffff"
     bordercolor="#000000"
     borderopacity="0.25"
     inkscape:showpageshadow="2"
     inkscape:pageopacity="0.0"
     inkscape:pagecheckerboard="true"
     inkscape:deskcolor="#d1d1d1"
     inkscape:document-units="mm"
     inkscape:zoom="1.527331"
     inkscape:cx="90.353695"
     inkscape:cy="84.133695"
     inkscape:window-width="1120"
     inkscape:window-height="834"
     inkscape:window-x="117"
     inkscape:window-y="114"
     inkscape:window-maximized="0"
     inkscape:current-layer="layer1" /><defs
     id="defs1" /><g
     inkscape:label="Layer 1"
     inkscape:groupmode="layer"
     id="layer1"><path
       id="rect7"
       style="fill:#1c4c84;fill-opacity:1;stroke:none;stroke-width:0.13645;stroke-linecap:round;stroke-linejoin:round"
       d="M 32.000114 0 A 32 32 0 0 0 0 32.000114 A 32 32 0 0 0 32.000114 64.000228 A 32 32 0 0 0 64.000228 32.000114 A 32 32 0 0 0 32.000114 0 z " /><path
       id="path6"
       style="fill:#ffffff;fill-opacity:1;stroke-width:0.132292;stroke-linecap:round;stroke-linejoin:round"
       d="M 27.837061 16.342672 C 20.237898 16.076831 13.381805 20.697679 8.9648275 26.58339 C 6.3705341 30.172588 3.5073129 33.562789 0.34106445 36.660295 A 32 32 0 0 0 0.77721354 39.010022 C 1.1946112 39.057935 1.6964461 38.826069 2.1352702 38.229708 C 1.4905737 36.007928 3.9385016 34.077032 5.6704549 35.990051 C 6.13138 37.594844 7.2523194 38.781343 8.4687337 36.859766 C 8.9017516 35.640232 6.6656167 33.065634 9.5704753 33.805688 C 11.882582 34.529712 9.6065407 38.527712 11.176579 38.570256 C 11.371559 35.03691 14.74239 37.641457 14.869377 39.817725 C 18.058632 39.338787 12.980763 34.299138 16.764351 35.010783 C 17.918045 35.591567 18.826731 39.260029 19.370394 36.236031 C 19.935827 35.255212 23.568378 35.864659 21.178035 34.554997 C 19.043266 35.070787 18.019691 33.446205 19.303215 32.137056 C 16.974724 31.967923 13.712283 30.21412 14.968595 27.361637 C 15.860154 24.687007 19.157032 24.646919 21.053495 25.237219 C 19.136719 23.747126 21.795489 21.80293 22.96449 23.841439 C 22.96719 26.354228 25.406984 23.646623 25.775171 22.944853 C 23.015198 22.231876 25.207481 19.414707 27.008171 21.291207 C 27.871401 23.478919 30.838982 22.922701 31.043066 25.598437 C 33.668109 24.833788 32.782929 30.408024 34.472831 27.189555 C 36.373395 25.650312 38.016147 32.012616 37.94032 27.9585 C 37.627639 25.726777 42.143876 27.661069 39.437386 25.747782 C 37.452651 26.23379 36.785061 23.388547 39.063249 23.546883 C 37.840284 21.053849 34.895333 23.709719 34.003092 21.41213 C 31.98864 20.676886 33.235816 19.114602 34.129183 18.860347 C 33.215842 16.487109 29.962914 16.529135 27.837061 16.342672 z M 63.525321 37.492285 C 60.318263 40.616484 57.462508 44.095676 54.155868 47.11547 C 56.823885 45.483907 58.811805 43.031707 61.000411 40.864689 C 61.55118 40.347997 62.390688 40.070759 63.058167 39.706104 A 32 32 0 0 0 63.525321 37.492285 z M 21.803837 43.220101 C 18.794094 43.224801 17.068035 46.138142 14.733984 47.602262 C 12.441466 49.464741 9.6997294 51.058146 6.8001017 51.722424 A 32 32 0 0 0 8.242391 53.438082 C 8.761117 53.30144 9.3999441 53.430977 9.9249756 54.066467 C 10.853852 54.357079 11.007991 55.231961 11.004496 56.149028 A 32 32 0 0 0 13.572298 58.161308 C 14.217581 57.860565 14.397925 57.49613 14.027568 56.338163 C 16.899901 55.008113 16.240411 58.546682 17.307987 60.427836 A 32 32 0 0 0 19.848401 61.602958 C 18.405196 60.092183 17.176626 58.245526 18.175118 56.455986 C 20.558239 56.634567 18.128898 55.217733 17.717265 54.177572 C 16.201747 54.909457 11.997964 53.247206 14.678691 51.87487 C 16.613301 53.16195 16.810598 51.695966 17.784961 50.866146 C 20.427674 51.839668 18.019011 46.995276 20.817851 48.48903 C 21.34645 49.79699 22.278236 53.135106 23.498307 50.511129 C 25.010017 50.195557 25.788547 53.423742 26.452132 51.266121 C 29.053614 51.457183 30.413416 54.438286 32.56132 55.719596 C 36.049391 58.552566 40.193316 60.411456 44.544568 61.438627 A 32 32 0 0 0 46.182194 60.685701 C 39.770874 59.743217 33.48713 56.688742 29.817301 51.217546 C 27.64766 48.552579 26.766572 44.280041 23.014099 43.339473 C 22.620312 43.224091 22.209322 43.222341 21.803837 43.220101 z M 41.914237 52.009229 C 44.926713 54.094906 48.081597 56.09136 51.533289 57.346887 A 32 32 0 0 0 52.382332 56.668892 C 49.95235 55.72618 47.699664 54.32461 45.634424 52.799361 C 44.37565 52.631676 43.140674 52.332429 41.914237 52.009229 z " /><path
       id="path13"
       style="fill:#f1c44f;fill-opacity:1;stroke:none;stroke-width:0.232864;stroke-linecap:round;stroke-linejoin:round"
       d="M 120.94531 0 A 120.94488 120.94488 0 0 0 0 120.94531 A 120.94488 120.94488 0 0 0 0.15039063 126.96289 L 1.6855469 125.7168 C 3.387516 124.11495 12.953291 113.0037 26.136719 97.312501 C 39.572065 81.32147 48.699821 72.765611 59.359376 66.171876 C 72.916788 57.785608 85.185677 53.863843 99.203126 53.437501 C 116.95265 52.897643 129.87591 57.626913 135.29492 66.644532 C 136.75392 69.072478 136.92383 69.707421 136.92383 72.695313 L 136.92383 76.033204 L 139.7832 76.300782 C 145.7419 76.857211 151.03841 79.685809 153.80664 83.789064 C 155.12401 85.741753 155.32031 86.420176 155.32031 89.021485 C 155.32031 91.863617 155.40238 92.080979 156.97852 93.464845 C 159.44166 95.627512 160.62069 98.219834 160.65039 101.5293 C 160.69883 106.9353 158.04722 109.92498 153.57422 109.50781 L 151.12891 109.28125 L 151.12891 110.89453 C 151.12891 115.18967 146.29689 119.93916 141.95313 119.91406 C 138.38369 119.89343 134.27859 116.81146 133.16992 113.31836 C 132.87816 112.39932 132.87175 112.39847 131.87305 113.31055 C 126.33012 118.37277 118.11157 114.61621 118.07227 107.00195 C 118.06293 105.19554 117.95844 105.02149 116.87891 105.02149 C 115.17574 105.02149 112.33155 106.59853 110.82813 108.37695 C 106.46602 113.53694 103.65375 124.75693 104.25195 134.60938 C 105.88937 161.57843 130.59798 186.4322 159.04688 189.72461 C 167.29454 190.67912 176.3963 189.96695 179.07227 188.15821 C 184.52856 184.47019 205.96622 163.75708 225.71485 144.15625 L 241.66407 128.32617 A 120.94488 120.94488 0 0 0 241.89063 120.94531 A 120.94488 120.94488 0 0 0 120.94531 0 z M 153.10547 119.19922 C 157.10675 119.20237 161.57745 125.81905 158.36914 129.02735 C 155.89818 131.49832 152.75923 130.06022 150.70117 125.51367 C 149.38832 122.6134 149.46304 121.13656 150.98242 119.94141 C 151.63942 119.42462 152.36449 119.19864 153.10547 119.19922 z "
       transform="scale(0.26458333)" /></g></svg>
