<?xml version="1.0" encoding="UTF-8" standalone="no"?>
<svg
   xmlns:dc="http://purl.org/dc/elements/1.1/"
   xmlns:cc="http://creativecommons.org/ns#"
   xmlns:rdf="http://www.w3.org/1999/02/22-rdf-syntax-ns#"
   xmlns:svg="http://www.w3.org/2000/svg"
   xmlns="http://www.w3.org/2000/svg"
   id="svg5391"
   version="1.1"
   viewBox="0 0 10 10">
  <metadata
     id="metadata5397">
    <rdf:RDF>
      <cc:Work
         rdf:about="">
        <dc:format>image/svg+xml</dc:format>
        <dc:type
           rdf:resource="http://purl.org/dc/dcmitype/StillImage" />
        <dc:title></dc:title>
      </cc:Work>
    </rdf:RDF>
  </metadata>
  <defs
     id="defs5395" />
  <circle
     style="opacity:1;stop-opacity:1"
     id="circle5017"
     fill="#e8e8e8"
     r="4"
     cx="5"
     cy="5"
     stroke="#000"
     stroke-width=".5" />
  <g
     style="opacity:1;stop-opacity:1"
     id="g5019"
     transform="matrix(0.8557,0,0,0.8557,-692.4045,0.65498901)">
    <path
       id="path5021"
       d="m 815.54,7.6142 c 0,0.12892 -0.046,0.24556 -0.13813,0.34992 -0.0921,0.098224 -0.21179,0.14734 -0.35913,0.14734 -0.14733,0 -0.26704,-0.049112 -0.35912,-0.14734 -0.0921,-0.10436 -0.13813,-0.221 -0.13813,-0.34992 0,-0.12892 0.046,-0.24249 0.13813,-0.34071 0.0921,-0.10436 0.21179,-0.15654 0.35912,-0.15654 0.14734,0 0.26705,0.052181 0.35913,0.15654 0.0921,0.098223 0.13813,0.21179 0.13813,0.34071 z m -0.221,-1.0436 h -0.66301 V 6.14175 c 0,-0.16575 0.0369,-0.31616 0.1105,-0.45121 0.0798,-0.1412 0.17496,-0.27011 0.28546,-0.38676 0.1105,-0.12278 0.23021,-0.23942 0.35913,-0.34992 0.12892,-0.1105 0.24556,-0.22714 0.34993,-0.34992 0.11049,-0.12892 0.20258,-0.26398 0.27625,-0.40517 0.0737,-0.1412 0.1105,-0.30388 0.1105,-0.48805 0,-0.31309 -0.10129,-0.56785 -0.30388,-0.7643 -0.19645,-0.19645 -0.45428,-0.29467 -0.77351,-0.29467 -0.31309,0 -0.57399,0.092084 -0.78272,0.27625 -0.20258,0.18417 -0.3315,0.42666 -0.38675,0.72747 l -0.69064,-0.082876 c 0.0368,-0.23942 0.10742,-0.45428 0.2118,-0.64459 0.1105,-0.19031 0.24556,-0.34992 0.40517,-0.47884 0.16575,-0.13506 0.35299,-0.23635 0.56171,-0.30388 0.20873,-0.067529 0.4328,-0.10129 0.67222,-0.10129 0.24556,0 0.47577,0.036834 0.69063,0.1105 0.21487,0.067528 0.39904,0.16882 0.55251,0.30388 0.15962,0.13506 0.28239,0.30388 0.36834,0.50646 0.0921,0.20259 0.13813,0.4328 0.13813,0.69063 0,0.25784 -0.0369,0.47577 -0.1105,0.6538 -0.0737,0.17803 -0.16576,0.33457 -0.27626,0.46963 -0.1105,0.12892 -0.23021,0.24556 -0.35913,0.34992 -0.12892,0.10436 -0.24863,0.21793 -0.35913,0.34071 -0.1105,0.11664 -0.20259,0.2517 -0.27625,0.40517 -0.0737,0.15347 -0.1105,0.23624 -0.1105,0.45724 z" />
  </g>
</svg>
